<svg xmlns="http://www.w3.org/2000/svg" width="1200" height="680" viewBox="0 0 1200 680">
<rect width="100%" height="100%" fill="white"/>
<text x="600.0" y="44" text-anchor="middle" font-size="30" font-weight="700" fill="#111827">Exact-Term Retrieval Benchmark</text>
<text x="600.0" y="76" text-anchor="middle" font-size="17" fill="#4b5563">Semantic-only vs BM25-only vs Hybrid RRF on 8 exact identifier/code-style queries</text>
<rect x="110" y="105" width="1040" height="440" fill="#f9fafb" stroke="#d1d5db"/>
<line x1="110" y1="545.0" x2="1150" y2="545.0" stroke="#e5e7eb"/>
<text x="98" y="550.0" text-anchor="end" font-size="14" fill="#374151">0.0</text>
<line x1="110" y1="457.0" x2="1150" y2="457.0" stroke="#e5e7eb"/>
<text x="98" y="462.0" text-anchor="end" font-size="14" fill="#374151">0.2</text>
<line x1="110" y1="369.0" x2="1150" y2="369.0" stroke="#e5e7eb"/>
<text x="98" y="374.0" text-anchor="end" font-size="14" fill="#374151">0.4</text>
<line x1="110" y1="281.0" x2="1150" y2="281.0" stroke="#e5e7eb"/>
<text x="98" y="286.0" text-anchor="end" font-size="14" fill="#374151">0.6</text>
<line x1="110" y1="193.0" x2="1150" y2="193.0" stroke="#e5e7eb"/>
<text x="98" y="198.0" text-anchor="end" font-size="14" fill="#374151">0.8</text>
<line x1="110" y1="105.0" x2="1150" y2="105.0" stroke="#e5e7eb"/>
<text x="98" y="110.0" text-anchor="end" font-size="14" fill="#374151">1.0</text>
<text x="35" y="325.0" text-anchor="middle" font-size="17" font-weight="700" fill="#111827">Score</text>
<rect x="186.3" y="248.0" width="58.0" height="297.0" rx="6" fill="#2563eb"/>
<text x="215.3" y="241.0" text-anchor="middle" font-size="13" font-weight="700" fill="#111827">0.675</text>
<rect x="254.3" y="160.0" width="58.0" height="385.0" rx="6" fill="#16a34a"/>
<text x="283.3" y="153.0" text-anchor="middle" font-size="13" font-weight="700" fill="#111827">0.875</text>
<rect x="322.3" y="243.2" width="58.0" height="301.8" rx="6" fill="#f59e0b"/>
<text x="351.3" y="236.2" text-anchor="middle" font-size="13" font-weight="700" fill="#111827">0.686</text>
<text x="283.3" y="579" text-anchor="middle" font-size="16" font-weight="700" fill="#111827">Semantic only</text>
<rect x="533.0" y="254.4" width="58.0" height="290.6" rx="6" fill="#2563eb"/>
<text x="562.0" y="247.4" text-anchor="middle" font-size="13" font-weight="700" fill="#111827">0.66</text>
<rect x="601.0" y="160.0" width="58.0" height="385.0" rx="6" fill="#16a34a"/>
<text x="630.0" y="153.0" text-anchor="middle" font-size="13" font-weight="700" fill="#111827">0.875</text>
<rect x="669.0" y="242.1" width="58.0" height="302.9" rx="6" fill="#f59e0b"/>
<text x="698.0" y="235.1" text-anchor="middle" font-size="13" font-weight="700" fill="#111827">0.688</text>
<text x="630.0" y="579" text-anchor="middle" font-size="16" font-weight="700" fill="#111827">BM25 only</text>
<rect x="879.7" y="234.2" width="58.0" height="310.8" rx="6" fill="#2563eb"/>
<text x="908.7" y="227.2" text-anchor="middle" font-size="13" font-weight="700" fill="#111827">0.706</text>
<rect x="947.7" y="176.5" width="58.0" height="368.5" rx="6" fill="#16a34a"/>
<text x="976.7" y="169.5" text-anchor="middle" font-size="13" font-weight="700" fill="#111827">0.838</text>
<rect x="1015.7" y="237.4" width="58.0" height="307.6" rx="6" fill="#f59e0b"/>
<text x="1044.7" y="230.4" text-anchor="middle" font-size="13" font-weight="700" fill="#111827">0.699</text>
<text x="976.7" y="579" text-anchor="middle" font-size="16" font-weight="700" fill="#111827">Hybrid RRF</text>
<rect x="420.0" y="609" width="22" height="14" rx="3" fill="#2563eb"/>
<text x="450.0" y="621" font-size="15" fill="#111827">Recall@5</text>
<rect x="545.0" y="609" width="22" height="14" rx="3" fill="#16a34a"/>
<text x="575.0" y="621" font-size="15" fill="#111827">MRR@5</text>
<rect x="670.0" y="609" width="22" height="14" rx="3" fill="#f59e0b"/>
<text x="700.0" y="621" font-size="15" fill="#111827">nDCG@5</text>
</svg>