<svg xmlns="http://www.w3.org/2000/svg" width="1350" height="680" viewBox="0 0 1350 680">
<rect width="100%" height="100%" fill="white"/>
<text x="675.0" y="44" text-anchor="middle" font-size="30" font-weight="700" fill="#111827">Course Builder Citation Coverage By Uploaded File</text>
<text x="675.0" y="76" text-anchor="middle" font-size="17" fill="#4b5563">Counts are based on source_chunk_ids and source_citations stored by Course Builder</text>
<rect x="110" y="105" width="1190" height="440" fill="#f9fafb" stroke="#d1d5db"/>
<line x1="110" y1="545.0" x2="1300" y2="545.0" stroke="#e5e7eb"/>
<text x="98" y="550.0" text-anchor="end" font-size="14" fill="#374151">0.0</text>
<line x1="110" y1="457.0" x2="1300" y2="457.0" stroke="#e5e7eb"/>
<text x="98" y="462.0" text-anchor="end" font-size="14" fill="#374151">25.4</text>
<line x1="110" y1="369.0" x2="1300" y2="369.0" stroke="#e5e7eb"/>
<text x="98" y="374.0" text-anchor="end" font-size="14" fill="#374151">50.8</text>
<line x1="110" y1="281.0" x2="1300" y2="281.0" stroke="#e5e7eb"/>
<text x="98" y="286.0" text-anchor="end" font-size="14" fill="#374151">76.2</text>
<line x1="110" y1="193.0" x2="1300" y2="193.0" stroke="#e5e7eb"/>
<text x="98" y="198.0" text-anchor="end" font-size="14" fill="#374151">101.6</text>
<line x1="110" y1="105.0" x2="1300" y2="105.0" stroke="#e5e7eb"/>
<text x="98" y="110.0" text-anchor="end" font-size="14" fill="#374151">127.0</text>
<text x="35" y="325.0" text-anchor="middle" font-size="17" font-weight="700" fill="#111827">Count</text>
<rect x="139.4" y="531.1" width="52.2" height="13.9" rx="6" fill="#2563eb"/>
<text x="165.5" y="524.1" text-anchor="middle" font-size="13" font-weight="700" fill="#111827">4</text>
<rect x="201.6" y="545.0" width="52.2" height="0.0" rx="6" fill="#16a34a"/>
<text x="227.7" y="538.0" text-anchor="middle" font-size="13" font-weight="700" fill="#111827">0</text>
<rect x="263.8" y="545.0" width="52.2" height="0.0" rx="6" fill="#f59e0b"/>
<text x="289.8" y="538.0" text-anchor="middle" font-size="13" font-weight="700" fill="#111827">0</text>
<rect x="325.9" y="527.7" width="52.2" height="17.3" rx="6" fill="#dc2626"/>
<text x="352.0" y="520.7" text-anchor="middle" font-size="13" font-weight="700" fill="#111827">5</text>
<text x="258.8" y="579" text-anchor="middle" font-size="16" font-weight="700" fill="#111827">Cours 1.pdf</text>
<rect x="436.9" y="524.2" width="52.2" height="20.8" rx="6" fill="#2563eb"/>
<text x="463.0" y="517.2" text-anchor="middle" font-size="13" font-weight="700" fill="#111827">6</text>
<rect x="499.1" y="468.8" width="52.2" height="76.2" rx="6" fill="#16a34a"/>
<text x="525.2" y="461.8" text-anchor="middle" font-size="13" font-weight="700" fill="#111827">22</text>
<rect x="561.2" y="441.1" width="52.2" height="103.9" rx="6" fill="#f59e0b"/>
<text x="587.3" y="434.1" text-anchor="middle" font-size="13" font-weight="700" fill="#111827">30</text>
<rect x="623.4" y="482.6" width="52.2" height="62.4" rx="6" fill="#dc2626"/>
<text x="649.5" y="475.6" text-anchor="middle" font-size="13" font-weight="700" fill="#111827">18</text>
<text x="556.2" y="579" text-anchor="middle" font-size="16" font-weight="700" fill="#111827">Cours 2.pdf</text>
<rect x="734.4" y="510.4" width="52.2" height="34.6" rx="6" fill="#2563eb"/>
<text x="760.5" y="503.4" text-anchor="middle" font-size="13" font-weight="700" fill="#111827">10</text>
<rect x="796.6" y="451.5" width="52.2" height="93.5" rx="6" fill="#16a34a"/>
<text x="822.7" y="444.5" text-anchor="middle" font-size="13" font-weight="700" fill="#111827">27</text>
<rect x="858.8" y="105.0" width="52.2" height="440.0" rx="6" fill="#f59e0b"/>
<text x="884.8" y="98.0" text-anchor="middle" font-size="13" font-weight="700" fill="#111827">127</text>
<rect x="920.9" y="371.8" width="52.2" height="173.2" rx="6" fill="#dc2626"/>
<text x="947.0" y="364.8" text-anchor="middle" font-size="13" font-weight="700" fill="#111827">50</text>
<text x="853.8" y="579" text-anchor="middle" font-size="16" font-weight="700" fill="#111827">Cours 3.pdf</text>
<rect x="1031.9" y="524.2" width="52.2" height="20.8" rx="6" fill="#2563eb"/>
<text x="1058.0" y="517.2" text-anchor="middle" font-size="13" font-weight="700" fill="#111827">6</text>
<rect x="1094.1" y="545.0" width="52.2" height="0.0" rx="6" fill="#16a34a"/>
<text x="1120.2" y="538.0" text-anchor="middle" font-size="13" font-weight="700" fill="#111827">0</text>
<rect x="1156.2" y="545.0" width="52.2" height="0.0" rx="6" fill="#f59e0b"/>
<text x="1182.3" y="538.0" text-anchor="middle" font-size="13" font-weight="700" fill="#111827">0</text>
<rect x="1218.4" y="545.0" width="52.2" height="0.0" rx="6" fill="#dc2626"/>
<text x="1244.5" y="538.0" text-anchor="middle" font-size="13" font-weight="700" fill="#111827">0</text>
<text x="1151.2" y="579" text-anchor="middle" font-size="16" font-weight="700" fill="#111827">Cours 4.pdf</text>
<rect x="435.0" y="609" width="22" height="14" rx="3" fill="#2563eb"/>
<text x="465.0" y="621" font-size="15" fill="#111827">Chapters</text>
<rect x="560.0" y="609" width="22" height="14" rx="3" fill="#16a34a"/>
<text x="590.0" y="621" font-size="15" fill="#111827">Lessons</text>
<rect x="685.0" y="609" width="22" height="14" rx="3" fill="#f59e0b"/>
<text x="715.0" y="621" font-size="15" fill="#111827">Blocks</text>
<rect x="810.0" y="609" width="22" height="14" rx="3" fill="#dc2626"/>
<text x="840.0" y="621" font-size="15" fill="#111827">Quiz questions</text>
</svg>